<svg width="32" height="32" viewBox="0 0 32 32" fill="none" xmlns="http://www.w3.org/2000/svg">
<g clip-path="url(#clip0_763_5971)">
<path d="M0.042878 30.6342C-0.422846 30.6105 -0.819587 30.9689 -0.843268 31.4346C-0.866949 31.9003 -0.508602 32.2971 -0.042878 32.3208L0.042878 30.6342ZM17.9904 28.9671L17.2961 28.4865L17.2024 28.6219L17.1664 28.7826L17.9904 28.9671ZM10.9821 26.9899L11.1527 26.163L10.9821 26.9899ZM20.3284 24.6533L20.402 25.4945C20.8523 25.455 21.1917 25.068 21.172 24.6165C21.1522 24.1649 20.7804 23.809 20.3284 23.809V24.6533ZM16.2226 26.0014L16.3505 25.1668L16.2226 26.0014ZM27.5705 29.8208L26.7294 29.7464L26.7129 29.9335L26.7772 30.11L27.5705 29.8208ZM25.7472 30.1051C25.2887 30.1904 24.9862 30.6312 25.0715 31.0896C25.1568 31.5481 25.5976 31.8506 26.0561 31.7653L25.7472 30.1051ZM-0.042878 32.3208C2.69976 32.4602 7.18828 32.1305 11.0045 31.6192C12.9168 31.363 14.6903 31.0572 16.0145 30.7333C16.672 30.5724 17.2501 30.3996 17.6871 30.2144C17.9032 30.1227 18.1195 30.0138 18.3011 29.8806C18.4573 29.7661 18.729 29.5328 18.8143 29.1516L17.1664 28.7826C17.2176 28.5541 17.3605 28.4763 17.3025 28.5188C17.2701 28.5426 17.1871 28.5921 17.0279 28.6596C16.7145 28.7925 16.2385 28.9399 15.6132 29.0929C14.3718 29.3966 12.6647 29.6929 10.7802 29.9454C7.00285 30.4515 2.63304 30.7659 0.042878 30.6342L-0.042878 32.3208ZM18.6847 29.4476C18.7784 29.3122 18.8433 29.1396 18.8455 28.9444C18.8477 28.757 18.7917 28.6036 18.7334 28.4964C18.6287 28.3036 18.4782 28.187 18.4042 28.134C18.2385 28.015 18.0299 27.9209 17.8445 27.8466C17.4504 27.6887 16.8879 27.5157 16.2305 27.3368C14.9042 26.9758 13.0754 26.5598 11.1527 26.163L10.8114 27.8169C12.7208 28.2109 14.5103 28.6187 15.7871 28.9662C16.4313 29.1416 16.9166 29.294 17.2164 29.4141C17.3779 29.4788 17.4278 29.5118 17.4196 29.5059C17.4131 29.5013 17.3925 29.4861 17.3655 29.4592C17.3402 29.434 17.2928 29.3823 17.2493 29.3021C17.2044 29.2194 17.155 29.0897 17.1569 28.9249C17.1589 28.7523 17.2166 28.6014 17.2961 28.4865L18.6847 29.4476ZM11.1527 26.163C9.96634 25.9182 9.31371 25.7075 8.99473 25.5509C8.82432 25.4673 8.8445 25.444 8.89995 25.5208C8.93659 25.5715 8.98933 25.6684 9.00159 25.8052C9.01416 25.9456 8.9785 26.0648 8.93544 26.1468C8.86734 26.2765 8.79039 26.2996 8.86786 26.2538C8.92337 26.221 9.01732 26.1774 9.15341 26.128C9.42396 26.0297 9.75274 25.9464 10.0358 25.8794L9.64735 24.236C9.36021 24.3039 8.94767 24.406 8.5767 24.5408C8.39202 24.6079 8.19016 24.6928 8.00866 24.8C7.84912 24.8943 7.59397 25.0691 7.44033 25.3617C7.3545 25.5251 7.29924 25.7286 7.31961 25.9559C7.33967 26.1798 7.4276 26.3665 7.53107 26.5097C7.72017 26.7714 8.00052 26.9441 8.25066 27.0669C8.77279 27.3231 9.60281 27.5674 10.8114 27.8169L11.1527 26.163ZM10.0358 25.8794C10.2323 25.833 10.8348 25.7759 11.7601 25.7238C12.6479 25.6739 13.749 25.632 14.875 25.5984C17.1276 25.5312 19.4553 25.4977 20.3284 25.4977V23.809C19.4337 23.809 17.0883 23.8429 14.8246 23.9104C13.6923 23.9442 12.5745 23.9866 11.6653 24.0378C10.7937 24.0868 10.0211 24.1477 9.64735 24.236L10.0358 25.8794ZM20.2548 23.8122C18.8847 23.9321 16.988 24.1469 15.8336 24.4044C15.5459 24.4685 15.2667 24.5433 15.0426 24.633C14.934 24.6766 14.7967 24.7397 14.6703 24.832C14.5721 24.9037 14.3066 25.117 14.2563 25.503C14.1971 25.957 14.4719 26.2513 14.6189 26.3692C14.7678 26.4887 14.9353 26.5593 15.0587 26.6036C15.3192 26.697 15.671 26.771 16.0948 26.836L16.3505 25.1668C15.9532 25.1059 15.7318 25.0509 15.6288 25.014C15.5704 24.9931 15.6086 24.9982 15.6757 25.052C15.7408 25.1043 15.9814 25.3329 15.9308 25.7213C15.8891 26.0417 15.6749 26.1894 15.6659 26.196C15.6288 26.2231 15.6188 26.2214 15.6705 26.2007C15.7672 26.162 15.9413 26.1105 16.2011 26.0526C17.2365 25.8217 19.035 25.6142 20.402 25.4945L20.2548 23.8122ZM16.0948 26.836C18.1488 27.1507 20.9857 27.6166 23.2798 28.2375C24.4341 28.5499 25.3968 28.8876 26.0438 29.2392C26.369 29.416 26.5648 29.5701 26.6669 29.686C26.7614 29.7933 26.7243 29.8046 26.7294 29.7464L28.4116 29.8953C28.4595 29.354 28.2281 28.9034 27.9339 28.5695C27.6474 28.2444 27.26 27.9782 26.8501 27.7555C26.027 27.3081 24.9118 26.9297 23.721 26.6074C21.3248 25.9589 18.4023 25.4811 16.3505 25.1668L16.0948 26.836ZM26.7772 30.11C26.673 29.8241 26.8443 29.6858 26.7883 29.7363C26.7189 29.7987 26.4537 29.9736 25.7472 30.1051L26.0561 31.7653C26.9042 31.6075 27.5192 31.3507 27.9185 30.991C28.3311 30.6193 28.5595 30.0685 28.3638 29.5316L26.7772 30.11Z" fill="#192EA1"/>
<path d="M27.5266 5.41806C26.1248 2.89808 23.5948 1.3335 20.923 1.3335C19.4579 1.3335 17.9981 1.8487 16.702 2.82397C16.015 3.34098 15.3977 3.97549 14.8834 4.68231C14.3691 3.97549 13.7518 3.34007 13.0648 2.82397C11.7696 1.8487 10.3099 1.3335 8.8447 1.3335C6.17288 1.3335 3.64296 2.89808 2.24107 5.41806C0.929565 7.77533 0.941315 10.4634 2.2718 12.6074C3.47665 14.548 5.41544 16.2707 7.46811 18.0947C10.1363 20.4647 12.8949 22.9159 13.5674 25.604C13.721 26.2205 14.2742 26.6317 14.8816 26.6317C14.9901 26.6317 15.1012 26.6182 15.2115 26.5911C15.3218 26.5639 15.4239 26.5224 15.5197 26.4708C15.9988 26.3588 16.4001 25.99 16.5275 25.4802C17.2045 22.7731 19.8754 20.3535 22.4596 18.0134C24.3478 16.3033 26.3001 14.5344 27.495 12.6092C28.8264 10.4652 28.8372 7.77714 27.5257 5.41986L27.5266 5.41806Z" fill="#F693E1"/>
<path d="M20.1703 12.3845C19.3944 11.5115 20.0395 9.56811 20.4506 8.64822C21.3041 6.73802 23.2291 5.12988 25.3389 5.12988C29.0812 5.12988 32.0679 9.64031 29.9781 13.0072C27.6734 16.7204 21.5706 19.8749 20.4506 24.3549" stroke="#192EA1" stroke-width="1.68872" stroke-linecap="round"/>
<path d="M20.1685 12.3845C20.9445 11.5115 20.2993 9.56811 19.8883 8.64822C19.0348 6.73802 17.1098 5.12988 15 5.12988C11.2576 5.12988 8.27096 9.64031 10.3608 13.0072C12.6655 16.7204 19.0485 19.9815 20.1685 24.4615" stroke="#192EA1" stroke-width="1.68872" stroke-linecap="round"/>
</g>
<defs>
<clipPath id="clip0_763_5971">
<rect width="32" height="32" fill="white"/>
</clipPath>
</defs>
</svg>
