<svg width="80" height="80" viewBox="0 0 80 80" fill="none" xmlns="http://www.w3.org/2000/svg">
<path fill-rule="evenodd" clip-rule="evenodd" d="M27.0744 39.2988C23.1945 44.7084 23.2641 51.5913 25.2541 56.151C29.5503 61.7934 37.7589 61.3836 44.9004 55.8108C45.3527 55.4578 45.7898 55.0927 46.2108 54.7168C50.963 62.0216 59.2988 65.0468 65.159 61.4631C71.2048 57.7659 70.3648 49.1043 69.0318 41.4653C69.0154 41.4379 68.9989 41.4105 68.9824 41.3831C69.1972 41.2968 69.4116 41.2065 69.6255 41.1123C78.0747 35.3388 81.4342 30.3718 79.4421 23.6757C78.0175 20.3613 74.9432 18.2987 71.2062 17.36C69.5134 16.7174 64.6681 16.0384 62.3866 15.7719V14.6701L62.3627 14.6846C62.0438 7.03136 57.5435 0.774656 51.3829 0.0656337C46.3852 -0.509563 41.8373 2.74386 39.2652 7.94013C38.5656 9.11551 37.9817 10.343 37.4831 11.3913C36.7395 12.9543 36.1855 14.1191 35.7199 14.1191H31.7686C26.5702 13.2162 21.5841 14.6856 19.2289 17.9094C15.1328 23.5163 17.6892 32.4616 24.9388 37.8895C25.6348 38.4106 26.3488 38.8804 27.0744 39.2988Z" fill="#FF85B1"/>
<path d="M38.1129 39.4432C32.6539 36.1568 29.8487 34.494 29.2412 31.8613C28.7322 29.6555 29.959 27.5644 32.0527 27.0693C33.2008 26.7978 34.4803 27.0955 35.4366 27.8449C35.9661 26.7442 36.9829 25.9034 38.131 25.6319C40.2247 25.1368 42.2396 26.4612 42.7486 28.667C43.3725 31.3709 41.5852 34.1198 38.1129 39.4432ZM37.2805 40.4655C31.8543 37.3214 28.6457 35.4538 27.874 32.1095L27.7755 31.6826C27.518 32.4188 27.4285 33.2654 27.6255 34.1193C28.2494 36.8232 31.0547 38.486 36.4809 41.63L37.2805 40.4655Z" fill="url(#paint0_linear_1319_11508)"/>
<path fill-rule="evenodd" clip-rule="evenodd" d="M13.014 10.7341C12.6492 11.6282 12.4916 12.7311 12.4916 13.4529C12.4916 13.8986 12.1347 14.26 11.6943 14.26C11.254 14.26 10.897 13.8986 10.897 13.4529C10.897 12.5602 11.0815 11.2416 11.5401 10.1178C11.9763 9.04875 12.821 7.80259 14.3038 7.80261C15.034 7.80262 15.5152 8.28061 15.7966 8.78268C16.0711 9.27238 16.2367 9.90871 16.3436 10.579C16.5598 11.9348 16.5779 13.7242 16.5141 15.5332C16.4499 17.3542 16.3004 19.2463 16.165 20.8251C16.1363 21.1599 16.1085 21.4785 16.0823 21.7781C15.9829 22.9154 15.9073 23.7805 15.8983 24.2315C15.8862 24.8411 15.8963 25.2018 15.9316 25.4295C15.941 25.4903 15.9507 25.5306 15.9581 25.5558C15.9958 25.5692 16.0766 25.5939 16.2342 25.6251C16.3066 25.6395 16.4017 25.6563 16.5129 25.676C16.7545 25.7187 17.0724 25.775 17.4003 25.8488C19.74 26.3751 21.8243 26.6405 25.2619 26.9082C25.7009 26.9424 26.0295 27.3304 25.9957 27.7749C25.9619 28.2194 25.5786 28.552 25.1396 28.5178C21.6669 28.2473 19.4987 27.9746 17.0544 27.4247C16.7532 27.3569 16.5256 27.3171 16.3094 27.2792C16.1825 27.257 16.0595 27.2355 15.9279 27.2094C15.6389 27.1521 15.2425 27.0632 14.9215 26.7956C14.5588 26.493 14.4184 26.0808 14.3562 25.6797C14.2964 25.2936 14.292 24.8 14.304 24.1989C14.3142 23.6873 14.3971 22.7399 14.4976 21.5915C14.523 21.3011 14.5496 20.9978 14.5763 20.6855C14.7113 19.1112 14.8578 17.2533 14.9204 15.4757C14.9835 13.686 14.9593 12.0281 14.7693 10.8363C14.6731 10.2327 14.5446 9.82013 14.4097 9.57938C14.3523 9.47699 14.3085 9.43271 14.2898 9.41709C13.8516 9.42476 13.3971 9.79513 13.014 10.7341ZM15.9715 25.5919C15.9714 25.592 15.9705 25.5905 15.9689 25.5867C15.9707 25.5899 15.9716 25.5917 15.9715 25.5919Z" fill="#0D1B27"/>
<path fill-rule="evenodd" clip-rule="evenodd" d="M9.99737 19.8168C9.99786 19.817 9.99544 19.8211 9.98862 19.8285C9.99346 19.8202 9.99687 19.8165 9.99737 19.8168ZM9.88302 19.9051C9.84634 19.8581 9.7919 19.7981 9.71166 19.7257C9.39004 19.4353 8.82102 19.1286 8.06827 18.9779C7.31552 18.8272 6.67401 18.8916 6.26742 19.0362C6.16599 19.0723 6.09312 19.1068 6.04153 19.1361C6.07821 19.1831 6.13264 19.243 6.21288 19.3155C6.5345 19.6058 7.10353 19.9126 7.85628 20.0633C8.60903 20.2139 9.25054 20.1495 9.65713 20.0049C9.75856 19.9688 9.83143 19.9344 9.88302 19.9051ZM5.96899 19.0104C5.96954 19.0103 5.97131 19.015 5.97268 19.0246C5.96913 19.0152 5.96844 19.0104 5.96899 19.0104ZM5.92718 19.2244C5.92669 19.2242 5.92911 19.22 5.93593 19.2127C5.93109 19.221 5.92768 19.2246 5.92718 19.2244ZM9.95187 20.0166C9.95542 20.026 9.9561 20.0308 9.95556 20.0308C9.95501 20.0308 9.95323 20.0261 9.95187 20.0166ZM7.54694 21.6469C9.51293 22.0405 11.2926 21.4075 11.522 20.2332C11.7514 19.0588 10.3436 17.7878 8.37761 17.3942C6.41162 17.0007 4.63192 17.6336 4.40254 18.808C4.17316 19.9824 5.58095 21.2534 7.54694 21.6469Z" fill="#0D1B27"/>
<path fill-rule="evenodd" clip-rule="evenodd" d="M11.5171 17.2839C10.8887 16.7988 8.72277 15.8463 6.05517 16.2842C5.56476 16.3647 5.38622 16.4867 5.3399 16.5296C5.34024 16.5329 5.34072 16.5366 5.34138 16.5408C5.35359 16.6194 5.40998 16.7618 5.54328 16.9494C5.66981 17.1275 5.82814 17.2935 5.96557 17.4129C6.29969 17.7033 6.33802 18.2129 6.05119 18.5511C5.76435 18.8894 5.26096 18.9282 4.92684 18.6378C4.70793 18.4476 4.45962 18.1889 4.2488 17.8922C4.04476 17.6051 3.83308 17.2228 3.76609 16.7917C3.69268 16.3194 3.79976 15.797 4.22002 15.3802C4.59863 15.0047 5.15104 14.7972 5.79991 14.6907C8.90486 14.1809 11.5117 15.2496 12.484 16.0001C13.1568 16.5194 13.4529 17.4724 13.295 18.3117C13.2116 18.7552 12.9983 19.1959 12.6211 19.5467C12.2434 19.8981 11.7433 20.1206 11.1481 20.1996C10.7115 20.2576 10.3111 19.9463 10.2538 19.5043C10.1966 19.0623 10.5041 18.6569 10.9407 18.599C11.2644 18.556 11.4433 18.4499 11.5422 18.358C11.6417 18.2654 11.7025 18.1479 11.7285 18.0098C11.7894 17.686 11.6447 17.3824 11.5171 17.2839ZM5.33923 16.5134C5.33924 16.5134 5.33923 16.5136 5.33917 16.514L5.33923 16.5134Z" fill="#0D1B27"/>
<path fill-rule="evenodd" clip-rule="evenodd" d="M6.34643 13.758C6.2613 13.9227 6.28258 14.2727 6.47382 14.6449L5.05918 15.39C4.78572 14.8579 4.48232 13.8825 4.93347 13.0096C5.43254 12.044 6.57839 11.6779 8.1613 11.8091C10.1463 11.9736 11.6772 12.6391 12.5681 13.5454C13.0146 13.9996 13.3328 14.5509 13.4022 15.1552C13.4744 15.784 13.265 16.3838 12.8122 16.8511L11.6739 15.7205C11.8035 15.5868 11.8324 15.4657 11.8182 15.3416C11.8011 15.1929 11.7081 14.9591 11.4377 14.6841C10.8949 14.1319 9.77002 13.5622 8.03116 13.418C6.63499 13.3023 6.38362 13.686 6.34643 13.758Z" fill="#0D1B27"/>
<path fill-rule="evenodd" clip-rule="evenodd" d="M6.7837 19.9227C7.21735 20.0002 7.50686 20.4189 7.43033 20.8579C7.17233 22.3379 6.94294 24.6209 7.11003 26.7755C7.28183 28.9909 7.85278 30.7983 8.94304 31.6474C8.96624 31.6654 8.98844 31.6848 9.00954 31.7053C11.1975 33.8351 17.3162 37.5269 24.1581 35.286C24.5771 35.1488 25.0266 35.3814 25.1622 35.8055C25.2977 36.2297 25.068 36.6847 24.649 36.822C17.0647 39.306 10.3796 35.2578 7.93504 32.8988C6.28835 31.5884 5.69495 29.1546 5.52025 26.9019C5.33959 24.5722 5.58637 22.1466 5.85993 20.5773C5.93645 20.1383 6.35004 19.8452 6.7837 19.9227Z" fill="#0D1B27"/>
<path fill-rule="evenodd" clip-rule="evenodd" d="M65.8788 34.4351V33.5782C65.8788 33.1324 66.2358 32.771 66.6761 32.771C67.1165 32.771 67.4735 33.1324 67.4735 33.5782V35.7306C67.4735 36.0129 67.3279 36.2746 67.0895 36.4209C66.8511 36.5672 66.5545 36.5768 66.3073 36.4463C64.3264 35.4 60.9129 33.9877 57.1686 33.1839C53.407 32.3764 49.4304 32.209 46.2455 33.5188L46.2352 33.523C44.5825 34.1756 43.4479 34.9327 42.894 35.6215C42.6234 35.958 42.5328 36.2258 42.5254 36.4196C42.5203 36.5523 42.5514 36.7076 42.6714 36.8894C42.9605 36.9541 43.1826 36.9814 43.524 36.8636C44.0121 36.6953 44.8065 36.1879 46.0481 34.7214C46.3347 34.3829 46.838 34.3437 47.1724 34.6339C47.5067 34.924 47.5454 35.4336 47.2589 35.772C45.949 37.319 44.9276 38.085 44.0384 38.3917C43.1971 38.6819 42.5492 38.5232 42.17 38.4302C42.127 38.4197 42.0875 38.41 42.0516 38.402C41.8925 38.3662 41.7481 38.2819 41.6378 38.1605C41.1658 37.6412 40.9062 37.0269 40.9319 36.3569C40.9569 35.7067 41.2463 35.1134 41.6574 34.6023C42.4659 33.5969 43.8987 32.7134 45.6505 32.021C49.2686 30.535 53.6174 30.7713 57.4994 31.6047C60.7491 32.3023 63.7549 33.4364 65.8788 34.4351Z" fill="#0D1B27"/>
<path fill-rule="evenodd" clip-rule="evenodd" d="M47.208 34.7745C47.6313 34.8976 47.8757 35.3448 47.7541 35.7732C47.5511 36.4882 47.3374 37.5482 47.3318 38.4167C47.329 38.8591 47.3817 39.1711 47.4587 39.3518C47.4897 39.4245 47.5149 39.4526 47.5219 39.4595C47.5244 39.4601 47.5285 39.4609 47.5345 39.4616C47.5422 39.4625 47.5499 39.4635 47.5576 39.4646C47.6861 39.4831 47.8554 39.4745 48.0109 39.4052C48.1483 39.3439 48.3225 39.2158 48.4649 38.9019C48.6488 38.4968 49.1222 38.3193 49.5223 38.5054C49.9225 38.6914 50.0979 39.1707 49.9141 39.5758C49.6131 40.239 49.1569 40.6582 48.6536 40.8826C48.1737 41.0966 47.6972 41.1137 47.3433 41.0643C46.6439 40.9794 46.2147 40.5079 45.9945 39.9914C45.7886 39.5085 45.7338 38.9343 45.7372 38.4063C45.744 37.3342 45.9972 36.1171 46.2215 35.3273C46.3431 34.8988 46.7848 34.6513 47.208 34.7745Z" fill="#0D1B27"/>
<path fill-rule="evenodd" clip-rule="evenodd" d="M51.2231 34.4528C51.5094 34.7915 51.4703 35.3011 51.1358 35.5909C50.3974 36.2308 49.9122 37.33 49.9717 38.2676C50.0002 38.7166 50.1505 39.1031 50.4299 39.4031C50.7096 39.7035 51.1771 39.9795 51.9481 40.0992C52.3834 40.1668 52.6821 40.5788 52.6153 41.0194C52.5486 41.46 52.1416 41.7625 51.7063 41.6949C50.6621 41.5327 49.8424 41.1256 49.2696 40.5105C48.6964 39.8951 48.4287 39.1338 48.3803 38.3712C48.286 36.8856 49.0111 35.3071 50.0988 34.3645C50.4334 34.0746 50.9367 34.1142 51.2231 34.4528Z" fill="#0D1B27"/>
<path fill-rule="evenodd" clip-rule="evenodd" d="M52.6354 35.8196C53.0568 35.9491 53.2948 36.3998 53.167 36.8264C53.1405 36.9148 53.114 37.0023 53.0878 37.089C52.8587 37.8463 52.6491 38.5392 52.6264 39.1566C52.6144 39.482 52.6593 39.7285 52.7484 39.9161C52.8284 40.0843 52.9655 40.2521 53.2291 40.4004C53.5694 40.539 53.9616 40.6537 54.266 40.6231C54.4022 40.6094 54.4851 40.5698 54.5438 40.5173C54.6029 40.4645 54.7029 40.3405 54.7712 40.0416C54.8703 39.6073 55.2985 39.3366 55.7276 39.437C56.1566 39.5374 56.424 39.9709 56.3249 40.4052C56.1996 40.9536 55.961 41.4046 55.5985 41.7282C55.2356 42.0521 54.8137 42.1903 54.4238 42.2295C53.6876 42.3037 52.9611 42.0348 52.5842 41.8776C52.5605 41.8677 52.5373 41.8567 52.5147 41.8446C51.9527 41.5433 51.5533 41.125 51.3114 40.6159C51.0755 40.1195 51.0146 39.5905 51.0328 39.0963C51.064 38.251 51.3417 37.3405 51.5616 36.6193C51.5892 36.529 51.6158 36.4416 51.641 36.3577C51.7688 35.9311 52.2141 35.6902 52.6354 35.8196Z" fill="#0D1B27"/>
<path fill-rule="evenodd" clip-rule="evenodd" d="M77.2086 31.7537C77.6465 31.7062 78.0395 32.027 78.0864 32.4703C78.7367 38.615 76.9517 42.3564 75.7576 43.5933C73.4715 46.3421 69.7 46.545 66.3855 45.9287C63.0223 45.3033 59.7863 43.7792 58.2201 42.6261C55.8894 40.9101 54.4403 39.9572 54.0264 39.7058C53.6488 39.4765 53.5263 38.9807 53.7529 38.5984C53.9795 38.2161 54.4692 38.0922 54.8468 38.3215C55.3189 38.6083 56.8111 39.5926 59.158 41.3206C60.5154 42.3199 63.5252 43.7555 66.6736 44.3409C69.8599 44.9334 72.852 44.6015 74.5548 42.5328C74.5702 42.5141 74.5865 42.4961 74.6035 42.4788C75.3586 41.7144 77.1214 38.5059 76.5008 32.6423C76.4539 32.199 76.7708 31.8012 77.2086 31.7537Z" fill="#0D1B27"/>
<path fill-rule="evenodd" clip-rule="evenodd" d="M20.3509 39.818C15.4872 39.4077 13.7327 41.5286 13.4537 42.263C13.4317 42.321 13.4032 42.3762 13.3686 42.4275L4.86371 55.0733C4.71522 55.2941 4.46847 55.4262 4.20463 55.4262H1.54685C1.10649 55.4262 0.749512 55.0648 0.749512 54.619C0.749512 54.1732 1.10649 53.8119 1.54685 53.8119H3.7829L12.0029 41.5897C12.673 39.9967 15.2448 37.7673 20.4833 38.2092C25.5423 38.636 29.056 38.383 30.1297 38.2158C30.5649 38.148 30.972 38.4503 31.039 38.8909C31.1059 39.3315 30.8074 39.7436 30.3722 39.8114C29.1424 40.0029 25.4978 40.2522 20.3509 39.818Z" fill="#0D1B27"/>
<path fill-rule="evenodd" clip-rule="evenodd" d="M22.7852 50.9254C22.892 51.3579 22.6323 51.7962 22.2051 51.9043C21.9632 51.9655 21.6318 52.14 21.2142 52.4749C20.8048 52.8032 20.3571 53.2493 19.8832 53.7917C18.9352 54.8765 17.9338 56.2862 16.982 57.7528C15.5402 59.9743 14.2593 62.2494 13.4677 63.6555C13.2106 64.1123 13.005 64.4774 12.8624 64.7191C12.6673 65.0497 12.4682 65.3702 12.2593 65.6362C12.0548 65.8966 11.7925 66.1688 11.4494 66.3325C11.0696 66.5136 10.6601 66.5293 10.2558 66.3855C9.88633 66.2541 9.54958 66.0005 9.23476 65.6956C9.2243 65.6855 9.21411 65.675 9.20421 65.6644L1.25743 57.083C0.819578 56.692 0.497556 56.335 0.290826 56.0012C0.0865201 55.6714 -0.0736295 55.2504 0.0351402 54.8028C0.150807 54.3269 0.504612 54.075 0.776224 53.9583C1.04379 53.8434 1.32625 53.8118 1.54692 53.8118C1.98728 53.8118 2.34426 54.1732 2.34426 54.619C2.34426 54.9684 2.12492 55.266 1.81801 55.3783C1.93512 55.5152 2.10255 55.6866 2.33775 55.8949C2.35752 55.9124 2.37642 55.9309 2.39439 55.9503L10.352 64.5434C10.5839 64.7655 10.723 64.8406 10.7844 64.8624C10.7848 64.8626 10.7852 64.8627 10.7857 64.8629C10.8192 64.8411 10.8936 64.781 11.011 64.6315C11.1493 64.4554 11.303 64.2139 11.4934 63.8912C11.6184 63.6794 11.8081 63.3423 12.0505 62.9117C12.8357 61.5167 14.1733 59.1405 15.6492 56.8663C16.6182 55.3733 17.6676 53.8906 18.6888 52.722C19.1994 52.1377 19.7159 51.6169 20.224 51.2095C20.7237 50.8087 21.2628 50.4787 21.8183 50.3381C22.2455 50.23 22.6784 50.493 22.7852 50.9254ZM1.58883 55.0403C1.58893 55.0403 1.58951 55.042 1.59029 55.0452C1.58913 55.0418 1.58873 55.0402 1.58883 55.0403Z" fill="#0D1B27"/>
<path fill-rule="evenodd" clip-rule="evenodd" d="M24.3738 45.9337C26.1656 44.8584 28.6179 44.3949 31.5795 44.3949H50.7156C51.156 44.3949 51.5129 44.7563 51.5129 45.2021C51.5129 45.6479 51.156 46.0093 50.7156 46.0093H31.5795C28.7423 46.0093 26.6232 46.4605 25.187 47.3224C23.7987 48.1556 22.9918 49.404 22.8045 51.2059L22.8036 51.2139C22.5626 53.3282 23.1891 59.513 27.9711 66.2508L34.0803 74.5867C34.1823 74.7258 34.2373 74.8944 34.2373 75.0677V78.3395C34.2922 78.3556 34.3515 78.3686 34.4137 78.3763C34.6207 78.4019 34.8502 78.3691 35.0878 78.1887C35.9037 77.5693 41.9941 72.3337 45.0562 69.6901C45.0206 69.559 44.8776 69.2229 44.3047 68.6429C43.637 67.967 40.4346 64.1802 38.9454 62.4065C38.3114 61.6515 37.8149 60.6205 38.1921 59.548C38.5602 58.5013 39.6367 57.7913 41.1943 57.3408C44.1749 56.4787 45.8306 56.0765 46.3068 55.9801C46.7386 55.8927 47.1586 56.1762 47.245 56.6133C47.3313 57.0505 47.0513 57.4757 46.6195 57.5631C46.2097 57.6461 44.6052 58.0332 41.6324 58.893C40.2133 59.3035 39.7947 59.8042 39.6944 60.0895C39.6032 60.3488 39.6648 60.7707 40.1604 61.361C41.6834 63.1748 44.8242 66.8857 45.4323 67.5014C46.2814 68.3609 46.6625 69.0953 46.6625 69.7537C46.6625 70.0943 46.5586 70.3661 46.4289 70.563C46.3662 70.6582 46.3007 70.7314 46.2444 70.7851C46.2162 70.8121 46.19 70.8346 46.167 70.8528C46.1664 70.8533 46.1659 70.8537 46.1653 70.8542C43.1642 73.4454 36.9197 78.8158 36.0446 79.4802C34.7922 80.4311 33.4602 79.8588 32.9616 79.4802C32.7608 79.3278 32.6427 79.0886 32.6427 78.8345V75.3344L26.6868 67.2078L26.6796 67.1979C21.6867 60.1655 20.9297 53.5848 21.219 51.0329C21.4577 48.747 22.5352 47.0372 24.3738 45.9337ZM45.222 69.554C45.222 69.554 45.222 69.554 45.222 69.554V69.554Z" fill="#0D1B27"/>
<path fill-rule="evenodd" clip-rule="evenodd" d="M43.7727 16.392C44.2109 16.3476 44.6016 16.6713 44.6455 17.1149C44.6694 17.3576 44.7039 17.591 44.7415 17.846C44.7567 17.9492 44.7725 18.056 44.7883 18.1684C44.8406 18.5408 44.8892 18.9507 44.8892 19.3794C44.8892 19.8252 44.5322 20.1866 44.0918 20.1866C43.6515 20.1866 43.2945 19.8252 43.2945 19.3794C43.2945 19.0677 43.2591 18.7487 43.2095 18.3957C43.1971 18.308 43.1836 18.216 43.1696 18.121C43.1299 17.8524 43.0868 17.5602 43.0587 17.2755C43.0149 16.8319 43.3346 16.4364 43.7727 16.392Z" fill="#0D1B27"/>
<path fill-rule="evenodd" clip-rule="evenodd" d="M50.925 15.0688C51.3637 15.0299 51.7505 15.3583 51.7889 15.8024C51.81 16.0454 51.8416 16.2793 51.8761 16.5346C51.8901 16.6381 51.9046 16.7451 51.919 16.8576C51.9669 17.2307 52.0105 17.6411 52.0054 18.0698C52 18.5156 51.6387 18.8725 51.1984 18.8671C50.758 18.8617 50.4054 18.4959 50.4108 18.0501C50.4146 17.7384 50.383 17.419 50.3376 17.0655C50.3264 16.9776 50.3139 16.8854 50.301 16.7902C50.2646 16.5212 50.2251 16.2285 50.2004 15.9434C50.1619 15.4994 50.4863 15.1078 50.925 15.0688Z" fill="#0D1B27"/>
<path fill-rule="evenodd" clip-rule="evenodd" d="M53.872 22.5081C54.1171 22.3016 54.2253 21.9568 54.1184 21.6321C53.9791 21.2092 53.5276 20.9806 53.1098 21.1216C52.9732 21.1677 52.8311 21.2434 52.7064 21.3662C52.584 21.4867 52.5191 21.613 52.4847 21.69C52.4719 21.7188 52.461 21.7461 52.4546 21.7624C52.101 22.219 51.7591 22.5917 51.3587 22.8565C50.3123 23.5487 48.8707 23.796 47.5485 23.6724C47.0402 23.6248 46.6778 23.5106 46.4719 23.3175C46.1488 23.0147 45.6443 23.0343 45.3451 23.3614C45.0459 23.6885 45.0653 24.1992 45.3884 24.5021C46.0006 25.0759 46.8209 25.2255 47.4018 25.2799C48.9721 25.4267 50.8019 25.1532 52.2309 24.208C52.8657 23.7882 53.3451 23.2331 53.7427 22.7155C53.8001 22.6409 53.8415 22.5694 53.872 22.5081Z" fill="#0D1B27"/>
<path fill-rule="evenodd" clip-rule="evenodd" d="M31 31.9208C31 31.6236 31.238 31.3827 31.5316 31.3827H31.6104C31.904 31.3827 32.1419 31.6236 32.1419 31.9208C32.1419 32.218 31.904 32.4589 31.6104 32.4589H31.5316C31.238 32.4589 31 32.218 31 31.9208Z" fill="#0D1B27"/>
<path fill-rule="evenodd" clip-rule="evenodd" d="M32.4959 32.8882C32.7307 32.7099 33.0639 32.758 33.24 32.9958C33.3396 33.1302 33.4627 33.256 33.6128 33.4093C33.6273 33.4241 33.642 33.4391 33.657 33.4544C33.8445 33.6463 34.0357 33.8277 34.2345 33.9947C34.4592 34.1834 34.6963 34.3418 34.9616 34.5191C35.0336 34.5672 35.1076 34.6167 35.1841 34.6685C35.428 34.8339 35.4932 35.1682 35.3298 35.4151C35.1664 35.662 34.8363 35.7281 34.5924 35.5626C34.5304 35.5206 34.4661 35.4777 34.4 35.4336C34.129 35.2527 33.8298 35.0531 33.5558 34.823C33.324 34.6284 33.1069 34.4218 32.9011 34.2113C32.8859 34.1957 32.8702 34.1796 32.8539 34.1631C32.7124 34.0189 32.536 33.8393 32.3895 33.6415C32.2134 33.4038 32.261 33.0665 32.4959 32.8882Z" fill="#0D1B27"/>
<defs>
<linearGradient id="paint0_linear_1319_11508" x1="34.1357" y1="22.8698" x2="33.9704" y2="41.1511" gradientUnits="userSpaceOnUse">
<stop stop-color="#1F38BC"/>
<stop offset="1" stop-color="#415AE2"/>
</linearGradient>
</defs>
</svg>
