<svg width="883" height="130" viewBox="0 0 883 130" fill="none" xmlns="http://www.w3.org/2000/svg">
<path d="M57.6816 32.0792L43.0992 95.936H26.0472L0.2928 3.38479H18.0504L34.5144 64.772L48.8616 3.38479H66.6192L80.9664 64.772L97.4304 3.38479H115.188L89.4336 95.936H72.3816L57.6816 32.0792ZM132.64 73.3568C134.286 77.12 136.795 80.0208 140.166 82.0592C143.537 84.0976 147.732 85.1168 152.749 85.1168C157.453 85.1168 161.726 84.3328 165.568 82.7648C169.488 81.1968 173.016 78.5312 176.152 74.768L188.029 83.8232C183.952 88.7624 179.052 92.604 173.329 95.348C167.606 98.092 161.373 99.464 154.631 99.464C148.829 99.464 143.42 98.5624 138.402 96.7592C133.384 95.0344 128.994 92.5256 125.231 89.2328C121.546 86.0184 118.606 82.0984 116.411 77.4728C114.294 72.7688 113.236 67.516 113.236 61.7144C113.236 56.0696 114.255 50.9344 116.293 46.3088C118.332 41.6048 121.115 37.6064 124.643 34.3136C128.171 30.9424 132.326 28.3552 137.108 26.552C141.969 24.6704 147.222 23.7296 152.867 23.7296C158.355 23.7296 163.372 24.6312 167.92 26.4344C172.545 28.2376 176.544 30.7464 179.915 33.9608C183.286 37.0968 185.952 40.8992 187.912 45.368C189.95 49.7584 191.087 54.58 191.322 59.8328L132.64 73.3568ZM153.69 38.0768C146.712 38.0768 141.185 40.0368 137.108 43.9568C133.11 47.7984 130.915 53.0512 130.523 59.7152L172.859 49.6016C170.82 45.5248 168.155 42.5848 164.862 40.7816C161.569 38.9784 157.845 38.0768 153.69 38.0768ZM256.032 3.38479H274.613V95.936H258.855L256.62 86.8808C255.209 88.684 253.484 90.2912 251.446 91.7024C249.408 93.192 247.173 94.4072 244.743 95.348C242.391 96.3672 239.921 97.112 237.334 97.5824C234.747 98.1312 232.199 98.3664 229.69 98.288C224.908 98.2096 220.36 97.2296 216.048 95.348C211.815 93.4664 208.052 90.9184 204.759 87.704C201.544 84.4896 198.996 80.6872 197.115 76.2968C195.233 71.828 194.292 67.0064 194.292 61.832C194.292 56.5008 195.272 51.6008 197.232 47.132C199.192 42.5848 201.819 38.704 205.112 35.4896C208.404 32.1968 212.168 29.6488 216.401 27.8456C220.635 25.964 225.025 25.0232 229.572 25.0232C235.139 25.0232 240.196 25.964 244.743 27.8456C249.29 29.6488 253.053 32.1968 256.032 35.4896V3.38479ZM233.336 83.9408C236.158 83.9408 238.824 83.4312 241.332 82.412C243.841 81.3928 245.997 79.9424 247.8 78.0608C249.682 76.1008 251.132 73.7488 252.152 71.0048C253.249 68.2608 253.798 65.2032 253.798 61.832C253.798 58.304 253.249 55.168 252.152 52.424C251.132 49.68 249.682 47.3672 247.8 45.4856C245.997 43.5256 243.841 42.036 241.332 41.0168C238.824 39.9976 236.158 39.488 233.336 39.488C230.513 39.488 227.848 39.9976 225.339 41.0168C222.83 42.036 220.635 43.5256 218.753 45.4856C216.95 47.3672 215.5 49.68 214.402 52.424C213.383 55.168 212.873 58.304 212.873 61.832C212.873 65.2032 213.383 68.2608 214.402 71.0048C215.5 73.7488 216.95 76.1008 218.753 78.0608C220.635 79.9424 222.83 81.3928 225.339 82.412C227.848 83.4312 230.513 83.9408 233.336 83.9408ZM345.128 3.38479H363.709V95.936H347.951L345.716 86.8808C344.305 88.684 342.58 90.2912 340.542 91.7024C338.503 93.192 336.269 94.4072 333.839 95.348C331.487 96.3672 329.017 97.112 326.43 97.5824C323.843 98.1312 321.295 98.3664 318.786 98.288C314.003 98.2096 309.456 97.2296 305.144 95.348C300.911 93.4664 297.147 90.9184 293.855 87.704C290.64 84.4896 288.092 80.6872 286.211 76.2968C284.329 71.828 283.388 67.0064 283.388 61.832C283.388 56.5008 284.368 51.6008 286.328 47.132C288.288 42.5848 290.915 38.704 294.207 35.4896C297.5 32.1968 301.263 29.6488 305.497 27.8456C309.731 25.964 314.121 25.0232 318.668 25.0232C324.235 25.0232 329.291 25.964 333.839 27.8456C338.386 29.6488 342.149 32.1968 345.128 35.4896V3.38479ZM322.431 83.9408C325.254 83.9408 327.919 83.4312 330.428 82.412C332.937 81.3928 335.093 79.9424 336.896 78.0608C338.778 76.1008 340.228 73.7488 341.247 71.0048C342.345 68.2608 342.894 65.2032 342.894 61.832C342.894 58.304 342.345 55.168 341.247 52.424C340.228 49.68 338.778 47.3672 336.896 45.4856C335.093 43.5256 332.937 42.036 330.428 41.0168C327.919 39.9976 325.254 39.488 322.431 39.488C319.609 39.488 316.943 39.9976 314.435 41.0168C311.926 42.036 309.731 43.5256 307.849 45.4856C306.046 47.3672 304.595 49.68 303.498 52.424C302.479 55.168 301.969 58.304 301.969 61.832C301.969 65.2032 302.479 68.2608 303.498 71.0048C304.595 73.7488 306.046 76.1008 307.849 78.0608C309.731 79.9424 311.926 81.3928 314.435 82.412C316.943 83.4312 319.609 83.9408 322.431 83.9408ZM395.769 27.3752V95.936H377.188V27.3752H395.769ZM395.769 0.0919907V17.9672H377.188V0.0919907H395.769ZM427.128 34.5488C428.382 33.0592 429.911 31.7264 431.714 30.5504C433.596 29.3744 435.595 28.3944 437.712 27.6104C439.828 26.748 442.024 26.1208 444.297 25.7288C446.571 25.2584 448.766 25.0232 450.883 25.0232C455.195 25.0232 459.232 25.6896 462.996 27.0224C466.759 28.3552 470.052 30.2368 472.874 32.6672C475.696 35.0192 477.892 37.92 479.46 41.3696C481.106 44.7408 481.929 48.504 481.929 52.6592V95.936H463.348V59.0096C463.348 52.1104 461.859 47.132 458.88 44.0744C455.9 40.9384 451.824 39.3704 446.649 39.3704C442.18 39.3704 438.26 40.8992 434.889 43.9568C431.596 46.936 429.44 51.0912 428.421 56.4224V95.936H409.84V27.3752H425.599L427.128 34.5488ZM568.751 92.996C568.751 98.484 567.81 103.384 565.929 107.696C564.125 112.086 561.577 115.81 558.285 118.868C554.992 122.004 551.072 124.434 546.525 126.159C541.977 127.884 536.999 128.786 531.589 128.864C526.572 129.021 521.75 128.55 517.125 127.453C512.577 126.355 508.501 124.67 504.894 122.396C501.288 120.122 498.309 117.182 495.957 113.576C493.605 110.048 492.193 105.814 491.723 100.875H510.539C510.853 105.344 512.656 108.754 515.949 111.106C519.32 113.458 523.632 114.634 528.885 114.634C531.942 114.634 534.765 114.203 537.352 113.341C539.939 112.478 542.173 111.146 544.055 109.342C546.015 107.539 547.505 105.266 548.524 102.522C549.621 99.856 550.17 96.6416 550.17 92.8784V84.6464C547.269 88.488 543.506 91.3104 538.881 93.1136C534.255 94.9952 529.237 95.936 523.828 95.936C519.045 95.936 514.498 95.0736 510.186 93.3488C505.953 91.624 502.189 89.1936 498.897 86.0576C495.682 82.9216 493.134 79.1976 491.253 74.8856C489.371 70.5736 488.43 65.8304 488.43 60.656C488.43 55.3248 489.41 50.464 491.37 46.0736C493.33 41.6832 495.957 37.9592 499.249 34.9016C502.542 31.7656 506.305 29.3352 510.539 27.6104C514.773 25.8856 519.163 25.0232 523.71 25.0232C529.355 25.0232 534.49 25.964 539.116 27.8456C543.741 29.7272 547.505 32.3928 550.405 35.8424L552.522 27.3752H568.751V92.996ZM527.473 81.5888C530.296 81.5888 532.961 81.0792 535.47 80.06C537.979 79.0408 540.135 77.6296 541.938 75.8264C543.82 73.9448 545.27 71.7104 546.289 69.1232C547.387 66.536 547.936 63.7136 547.936 60.656C547.936 57.4416 547.387 54.5408 546.289 51.9536C545.27 49.3664 543.82 47.1712 541.938 45.368C540.135 43.4864 537.979 42.036 535.47 41.0168C532.961 39.9976 530.296 39.488 527.473 39.488C524.651 39.488 521.985 39.9976 519.477 41.0168C516.968 42.036 514.773 43.4864 512.891 45.368C511.088 47.1712 509.637 49.3664 508.54 51.9536C507.521 54.5408 507.011 57.4416 507.011 60.656C507.011 63.7136 507.521 66.536 508.54 69.1232C509.637 71.7104 511.088 73.9448 512.891 75.8264C514.773 77.6296 516.968 79.0408 519.477 80.06C521.985 81.0792 524.651 81.5888 527.473 81.5888ZM662.578 95.936H643.998V54.3056C643.998 52.6592 643.762 50.9736 643.292 49.2488C642.9 47.4456 642.234 45.8384 641.293 44.4272C640.352 42.9376 639.176 41.7616 637.765 40.8992C636.354 39.9584 634.707 39.488 632.826 39.488C631.258 39.488 629.807 39.9192 628.474 40.7816C627.142 41.644 625.926 42.7808 624.829 44.192C623.81 45.5248 622.947 47.0536 622.242 48.7784C621.536 50.5032 621.066 52.1888 620.83 53.8352V95.936H602.25V27.3752H618.478L620.007 32.6672C622.594 29.7664 625.652 27.8064 629.18 26.7872C632.708 25.6896 636.158 25.1016 639.529 25.0232C642.9 25.0232 646.114 25.8856 649.172 27.6104C652.308 29.2568 655.013 31.648 657.286 34.784C658.776 32.7456 660.422 31.0992 662.226 29.8448C664.029 28.512 665.91 27.4928 667.87 26.7872C669.83 26.0816 671.908 25.6112 674.103 25.376C676.298 25.1408 678.572 25.0232 680.924 25.0232C684.06 25.0232 687.039 25.7288 689.862 27.14C692.684 28.4728 695.154 30.3936 697.27 32.9024C699.466 35.4112 701.19 38.4688 702.445 42.0752C703.699 45.6032 704.326 49.5232 704.326 53.8352V95.936H685.746V54.3056C685.746 52.6592 685.51 50.9736 685.04 49.2488C684.648 47.4456 683.982 45.8384 683.041 44.4272C682.178 42.9376 681.002 41.7616 679.513 40.8992C678.102 39.9584 676.377 39.488 674.338 39.488C671.359 39.488 668.733 40.664 666.459 43.016C664.264 45.368 662.97 48.6216 662.578 52.7768V95.936ZM774.906 27.3752H791.134V95.936H775.376L773.142 86.8808C771.73 88.684 770.006 90.2912 767.967 91.7024C765.929 93.192 763.694 94.4072 761.264 95.348C758.912 96.3672 756.442 97.112 753.855 97.5824C751.268 98.1312 748.72 98.3664 746.211 98.288C741.429 98.2096 736.882 97.2296 732.57 95.348C728.336 93.4664 724.573 90.9184 721.28 87.704C718.066 84.4896 715.518 80.6872 713.636 76.2968C711.754 71.828 710.814 67.0064 710.814 61.832C710.814 56.5008 711.794 51.6008 713.754 47.132C715.714 42.5848 718.34 38.704 721.633 35.4896C724.926 32.1968 728.689 29.6488 732.922 27.8456C737.156 25.964 741.546 25.0232 746.094 25.0232C751.738 25.0232 756.874 25.964 761.499 27.8456C766.125 29.7272 769.888 32.3928 772.789 35.8424L774.906 27.3752ZM749.857 83.9408C752.679 83.9408 755.345 83.4312 757.854 82.412C760.362 81.3928 762.518 79.9424 764.322 78.0608C766.203 76.1008 767.654 73.7488 768.673 71.0048C769.77 68.2608 770.319 65.2032 770.319 61.832C770.319 58.304 769.77 55.168 768.673 52.424C767.654 49.68 766.203 47.3672 764.322 45.4856C762.518 43.5256 760.362 42.036 757.854 41.0168C755.345 39.9976 752.679 39.488 749.857 39.488C747.034 39.488 744.369 39.9976 741.86 41.0168C739.351 42.036 737.156 43.5256 735.274 45.4856C733.471 47.3672 732.021 49.68 730.923 52.424C729.904 55.168 729.394 58.304 729.394 61.832C729.394 65.2032 729.904 68.2608 730.923 71.0048C732.021 73.7488 733.471 76.1008 735.274 78.0608C737.156 79.9424 739.351 81.3928 741.86 82.412C744.369 83.4312 747.034 83.9408 749.857 83.9408ZM818.49 27.3752L821.195 33.7256C824.723 30.8248 828.565 28.6688 832.72 27.2576C836.953 25.768 841.814 25.0232 847.302 25.0232C851.849 25.0232 856.24 25.964 860.473 27.8456C864.707 29.6488 868.47 32.1968 871.763 35.4896C875.056 38.704 877.682 42.5848 879.642 47.132C881.602 51.6008 882.582 56.5008 882.582 61.832C882.582 67.0064 881.602 71.828 879.642 76.2968C877.761 80.6872 875.213 84.4896 871.998 87.704C868.784 90.9184 865.021 93.4664 860.709 95.348C856.475 97.2296 851.967 98.2096 847.185 98.288C842.245 98.4448 837.502 97.7392 832.955 96.1712C828.408 94.6032 824.37 92.2512 820.842 89.1152V126.512H802.261V27.3752H818.49ZM843.539 83.9408C846.361 83.9408 849.027 83.4312 851.536 82.412C854.045 81.3928 856.201 79.9424 858.004 78.0608C859.885 76.1008 861.336 73.7488 862.355 71.0048C863.453 68.2608 864.001 65.2032 864.001 61.832C864.001 58.304 863.453 55.168 862.355 52.424C861.336 49.68 859.885 47.3672 858.004 45.4856C856.201 43.5256 854.045 42.036 851.536 41.0168C849.027 39.9976 846.361 39.488 843.539 39.488C840.717 39.488 838.051 39.9976 835.542 41.0168C833.033 42.036 830.838 43.5256 828.957 45.4856C827.153 47.3672 825.703 49.68 824.605 52.424C823.586 55.168 823.077 58.304 823.077 61.832C823.077 65.2032 823.586 68.2608 824.605 71.0048C825.703 73.7488 827.153 76.1008 828.957 78.0608C830.838 79.9424 833.033 81.3928 835.542 82.412C838.051 83.4312 840.717 83.9408 843.539 83.9408Z" fill="#192EA1"/>
</svg>
