<svg width="85" height="117" viewBox="0 0 85 117" fill="none" xmlns="http://www.w3.org/2000/svg">
<path d="M1.24223 96.3185C1.24223 94.3664 1.90837 92.8356 3.24065 91.726C4.57293 90.5959 6.53097 90.0308 9.11479 90.0308C11.6986 90.0308 13.6566 90.5959 14.9889 91.726C16.3212 92.8356 16.9873 94.3664 16.9873 96.3185C16.9873 98.2705 16.3212 99.8116 14.9889 100.942C13.6566 102.051 11.6986 102.606 9.11479 102.606C6.53097 102.606 4.57293 102.051 3.24065 100.942C1.90837 99.8116 1.24223 98.2705 1.24223 96.3185ZM19.5308 115.767V113.795H13.5961V110.065H19.5308V90H23.891V115.767H19.5308ZM30.189 115.767H25.7985V90H30.189V115.767ZM7.02553 115.767V108.185H1V104.455H17.7746V108.185H11.3857V115.767H7.02553ZM5.99604 96.3185C5.99604 97.0993 6.28874 97.726 6.87414 98.1986C7.45953 98.6507 8.20641 98.8767 9.11479 98.8767C10.0232 98.8767 10.77 98.6404 11.3554 98.1678C11.961 97.6952 12.2638 97.0788 12.2638 96.3185C12.2638 95.5582 11.961 94.9418 11.3554 94.4692C10.77 93.9966 10.0232 93.7603 9.11479 93.7603C8.20641 93.7603 7.45953 93.9966 6.87414 94.4692C6.28874 94.9212 5.99604 95.5377 5.99604 96.3185Z" fill="#1F38BC"/>
<path d="M35.9652 94.0685V100.449H47.8346V104.209H31.2114V90.3082H47.5318V94.0685H35.9652ZM44.0194 117C42.1219 117 40.4263 116.887 38.9326 116.661C37.4388 116.435 36.1671 116.086 35.1174 115.613C34.0879 115.14 33.3006 114.555 32.7556 113.856C32.2106 113.158 31.9381 112.325 31.9381 111.36C31.9381 110.414 32.2106 109.592 32.7556 108.894C33.3006 108.175 34.0879 107.589 35.1174 107.137C36.1671 106.664 37.4388 106.315 38.9326 106.089C40.4263 105.863 42.1219 105.75 44.0194 105.75C45.9169 105.75 47.6125 105.863 49.1063 106.089C50.6001 106.315 51.8617 106.664 52.8912 107.137C53.9409 107.589 54.7382 108.175 55.2832 108.894C55.8283 109.592 56.1008 110.414 56.1008 111.36C56.1008 112.325 55.8283 113.158 55.2832 113.856C54.7382 114.555 53.9409 115.14 52.8912 115.613C51.8617 116.086 50.6001 116.435 49.1063 116.661C47.6125 116.887 45.9169 117 44.0194 117ZM44.0194 113.24C46.3408 113.24 48.1374 113.096 49.4091 112.808C50.701 112.521 51.347 112.038 51.347 111.36C51.347 110.682 50.701 110.199 49.4091 109.911C48.1374 109.623 46.3408 109.479 44.0194 109.479C41.698 109.479 39.8914 109.623 38.5995 109.911C37.3278 110.199 36.6919 110.682 36.6919 111.36C36.6919 112.038 37.3278 112.521 38.5995 112.808C39.8914 113.096 41.698 113.24 44.0194 113.24ZM55.4952 90V105.257H50.7414V90H55.4952Z" fill="#1F38BC"/>
<path d="M64.1983 105.257V107.075H80.2462V105.257H85V116.384H59.4445V105.257H64.1983ZM71.1625 90.3082V103.284H58.1728V90.3082H71.1625ZM73.5848 103.87V90H77.945V95.0548L80.6095 94.0993V90H85V103.87H80.6095V98.2603L77.945 99.2158V103.87H73.5848ZM80.2462 112.654V110.805H64.1983V112.654H80.2462ZM62.5329 99.8322H66.8023V93.7603H62.5329V99.8322Z" fill="#1F38BC"/>
<path fill-rule="evenodd" clip-rule="evenodd" d="M28.7248 63.2989C29.3874 63.464 30.1533 63.638 31.0352 63.8196C35.9807 64.8377 40.6869 65.9056 44.1022 66.8328C45.7938 67.292 47.2475 67.7376 48.2694 68.1461C48.7484 68.3375 49.2991 68.5847 49.741 68.901C49.9375 69.0416 50.3471 69.3569 50.6328 69.8818C50.7919 70.1742 50.9456 70.5931 50.9397 71.1059C50.936 71.4243 50.8712 71.7207 50.765 71.9866C50.47 72.8322 49.8437 73.3605 49.4772 73.6285C48.9967 73.9801 48.4282 74.265 47.8674 74.5022C46.7324 74.9822 45.2366 75.4277 43.5429 75.841C40.13 76.6739 35.5635 77.459 30.6433 78.1166C20.8262 79.4288 9.273 80.2759 2.20635 79.9175C0.924316 79.8525 -0.0621348 78.763 0.00305353 77.4841C0.0682418 76.2053 1.16038 75.2212 2.44242 75.2863C9.08933 75.6234 20.3158 74.8183 30.026 73.5205C34.8694 72.8732 39.2534 72.1139 42.4382 71.3367C42.5358 71.3128 42.632 71.2891 42.7267 71.2654C39.4587 70.3844 34.9277 69.3559 30.0956 68.3611C26.9856 67.7208 24.8351 67.0911 23.474 66.4247C22.8235 66.1062 22.0753 65.6499 21.5669 64.9478C21.2881 64.5628 21.0492 64.0585 20.9947 63.4515C20.9394 62.8351 21.0897 62.284 21.3221 61.8425C21.7373 61.0539 22.4235 60.5876 22.8412 60.3413C23.3194 60.0594 23.8482 59.838 24.3276 59.6643C25.2906 59.3152 26.3591 59.0516 27.0978 58.8774C28.075 58.647 30.0772 58.4906 32.3137 58.365C34.6537 58.2337 37.5298 58.1249 40.442 58.0382C46.2643 57.8649 52.2972 57.7778 54.5999 57.7778C55.8442 57.7778 56.8677 58.7552 56.922 59.9952C56.9764 61.2352 56.0421 62.2979 54.8027 62.4062C54.1017 62.4674 53.3569 62.5376 52.5927 62.6154C56.1943 63.2676 59.9822 64.0487 63.3641 64.9617C66.4296 65.7893 69.3112 66.7638 71.444 67.92C72.5056 68.4956 73.5191 69.1884 74.2727 70.0414C75.0473 70.9183 75.6667 72.1139 75.5387 73.5567C75.4515 74.539 75.1191 75.9364 73.8666 77.0317C72.6509 78.0948 70.9588 78.5293 68.9318 78.5293C67.6481 78.5293 66.6075 77.4913 66.6075 76.2107C66.6075 74.9302 67.6481 73.8921 68.9318 73.8921C70.376 73.8921 70.7697 73.5731 70.8021 73.5448C70.8175 73.5313 70.8263 73.522 70.8411 73.4862C70.8579 73.4455 70.8801 73.3722 70.8967 73.2499C70.8761 73.2183 70.8414 73.1711 70.785 73.1073C70.539 72.8288 70.0529 72.4437 69.2242 71.9944C67.5764 71.1011 65.1148 70.2384 62.1496 69.4379C56.2594 67.8476 48.9719 66.6537 43.6897 65.8463C42.5975 65.6794 41.6812 65.4877 40.9971 65.243C40.6737 65.1273 40.2244 64.9393 39.8218 64.6171C39.4776 64.3416 38.8658 63.7022 38.8144 62.729C36.5497 62.8044 34.3887 62.8931 32.5748 62.9949C30.7846 63.0954 29.474 63.2028 28.7248 63.2989ZM70.9241 73.2995C70.9237 73.2995 70.9219 73.2957 70.9194 73.2884C70.9232 73.2959 70.9244 73.2996 70.9241 73.2995ZM46.7272 69.8898C46.7275 69.8895 46.7279 69.8893 46.7282 69.889C46.731 69.887 46.7335 69.8852 46.7358 69.8834C46.7671 69.8599 46.762 69.8592 46.7349 69.8829C46.7325 69.885 46.7299 69.8873 46.7272 69.8898ZM25.134 64.3814C25.1333 64.3813 25.141 64.3748 25.1594 64.3626C25.1439 64.3755 25.1347 64.3816 25.134 64.3814Z" fill="#1F38BC"/>
<path d="M73.0421 10.4767C69.4277 4.0131 62.9048 0 56.016 0C52.2384 0 48.4748 1.32147 45.133 3.82299C43.3618 5.1491 41.7702 6.77659 40.4441 8.58956C39.1181 6.77659 37.5265 5.14678 35.7553 3.82299C32.4158 1.32147 28.6522 0 24.8746 0C17.9858 0 11.463 4.0131 7.84848 10.4767C4.46703 16.523 4.49733 23.4178 7.92772 28.917C11.0342 33.8946 16.0329 38.3134 21.3253 42.9918C28.2048 49.0706 35.3172 55.358 37.051 62.2528C37.4472 63.834 38.8734 64.8888 40.4395 64.8888C40.7191 64.8888 41.0058 64.8541 41.2901 64.7845C41.5744 64.715 41.8377 64.6083 42.0848 64.4762C43.3199 64.1887 44.3546 63.2428 44.6832 61.9352C46.4287 54.9917 53.3151 48.7854 59.9778 42.7832C64.846 38.3968 69.8798 33.8598 72.9606 28.9217C76.3933 23.4225 76.4213 16.5277 73.0398 10.4813L73.0421 10.4767Z" fill="#F793E1"/>
<path fill-rule="evenodd" clip-rule="evenodd" d="M67.3758 11.7711C63.07 11.7711 58.7774 15.1282 56.8275 19.4616C56.3419 20.541 55.7382 22.1846 55.4818 23.7472C55.1978 25.4778 55.4648 26.3196 55.7114 26.595C56.5724 27.5569 56.4852 29.0297 55.5166 29.8846C54.5479 30.7396 53.0647 30.653 52.2038 29.6911C50.4358 27.7161 50.5331 24.9277 50.8497 22.9977C51.194 20.8998 51.9613 18.8526 52.5427 17.5605C55.0243 12.0452 60.7269 7.11084 67.3758 7.11084C73.1919 7.11084 78.2533 10.5681 81.0741 15.1183C83.9113 19.6949 84.691 25.7341 81.4137 30.9772C79.7663 33.6127 77.4923 36.0723 75.0751 38.4047C73.5674 39.8594 71.9179 41.3435 70.29 42.8082C69.3402 43.6626 68.3978 44.5105 67.4951 45.3422C62.387 50.0484 58.226 54.5451 56.9616 59.5675C56.6473 60.8159 55.3732 61.575 54.116 61.2629C52.8587 60.9508 52.0943 59.6857 52.4086 58.4372C54.0519 51.9101 59.2666 46.5661 64.3031 41.9259C65.2986 41.0087 66.2796 40.1266 67.2426 39.2607C68.8164 37.8455 70.3421 36.4736 71.8045 35.0625C74.1316 32.817 76.0818 30.6704 77.4262 28.5196C79.5743 25.083 79.1898 20.9685 77.0775 17.5613C74.9489 14.1277 71.2755 11.7711 67.3758 11.7711Z" fill="#1F38BC"/>
<path fill-rule="evenodd" clip-rule="evenodd" d="M41.069 11.7476C45.3748 11.7476 49.6674 15.0877 51.6173 19.3994C52.103 20.4733 52.7067 22.1086 52.9631 23.6633C53.247 25.3851 52.98 26.2227 52.7334 26.4968C51.8724 27.4538 51.9596 28.9192 52.9283 29.7698C53.8969 30.6205 55.3801 30.5343 56.2411 29.5773C58.009 27.6122 57.9118 24.8378 57.5951 22.9176C57.2509 20.8303 56.4836 18.7934 55.9022 17.5078C53.4205 12.0203 47.7179 7.11084 41.069 7.11084C35.2529 7.11084 30.1916 10.5507 27.3707 15.0779C24.5335 19.6314 23.7538 25.6402 27.0312 30.8569C28.6849 33.4893 31.0132 35.9586 33.4979 38.3034C35.0731 39.79 36.7999 41.3059 38.5064 42.804C39.4646 43.6451 40.4163 44.4807 41.3312 45.3022C46.6366 50.0663 50.9516 54.6005 52.2107 59.5764C52.5251 60.8186 53.7991 61.5738 55.0564 61.2632C56.3136 60.9527 57.078 59.694 56.7637 58.4518C55.1151 51.9366 49.6907 46.5429 44.4877 41.8709C43.4841 40.9698 42.4933 40.1003 41.5205 39.2467C39.8663 37.7951 38.2641 36.3892 36.7396 34.9505C34.3434 32.6892 32.3566 30.5414 31.0186 28.4116C28.8705 24.9923 29.255 20.8986 31.3673 17.5086C33.4959 14.0923 37.1693 11.7476 41.069 11.7476Z" fill="#1F38BC"/>
</svg>
