<svg width="75" height="104" viewBox="0 0 75 104" fill="none" xmlns="http://www.w3.org/2000/svg">
<path fill-rule="evenodd" clip-rule="evenodd" d="M26.0786 55.3866C26.6583 55.5311 27.3285 55.6834 28.1001 55.8422C32.4274 56.7331 36.5454 57.6675 39.5338 58.4788C41.0139 58.8806 42.2859 59.2705 43.1801 59.6279C43.5992 59.7954 44.0811 60.0117 44.4677 60.2884C44.6396 60.4115 44.9981 60.6873 45.2481 61.1467C45.3873 61.4025 45.5218 61.769 45.5166 62.2177C45.5134 62.4963 45.4567 62.7557 45.3638 62.9884C45.1056 63.7283 44.5576 64.1905 44.237 64.425C43.8165 64.7326 43.3191 64.982 42.8283 65.1895C41.8352 65.6095 40.5264 65.9993 39.0444 66.361C36.0582 67.0897 32.0624 67.7767 27.7573 68.3521C19.1673 69.5002 9.05822 70.2415 2.8749 69.9279C1.75311 69.871 0.889968 68.9177 0.947008 67.7987C1.00405 66.6797 1.95967 65.8187 3.08146 65.8756C8.89751 66.1706 18.7207 65.4661 27.2171 64.3305C31.4551 63.7641 35.2911 63.0997 38.0778 62.4197C38.1632 62.3988 38.2473 62.378 38.3302 62.3573C35.4707 61.5864 31.5061 60.6865 27.278 59.816C24.5567 59.2558 22.675 58.7048 21.4841 58.1217C20.9149 57.843 20.2603 57.4437 19.8154 56.8294C19.5714 56.4926 19.3624 56.0512 19.3147 55.5202C19.2663 54.9808 19.3979 54.4986 19.6012 54.1123C19.9645 53.4222 20.5649 53.0142 20.9304 52.7987C21.3488 52.5521 21.8116 52.3583 22.231 52.2063C23.0737 51.9008 24.0086 51.6702 24.655 51.5178C25.51 51.3162 27.2619 51.1793 29.2188 51.0695C31.2663 50.9546 33.783 50.8594 36.3311 50.7835C41.4257 50.6318 46.7044 50.5557 48.7193 50.5557C49.808 50.5557 50.7036 51.4109 50.7512 52.4959C50.7987 53.5809 49.9813 54.5108 48.8967 54.6055C48.2833 54.6591 47.6317 54.7205 46.9629 54.7885C50.1144 55.3592 53.4288 56.0427 56.388 56.8416C59.0702 57.5657 61.5917 58.4184 63.4579 59.4301C64.3868 59.9337 65.2736 60.5399 65.933 61.2863C66.6108 62.0536 67.1528 63.0998 67.0407 64.3622C66.9644 65.2217 66.6736 66.4444 65.5776 67.4028C64.5139 68.333 63.0333 68.7132 61.2597 68.7132C60.1365 68.7132 59.2259 67.8049 59.2259 66.6845C59.2259 65.564 60.1365 64.6557 61.2597 64.6557C62.5234 64.6557 62.8679 64.3765 62.8962 64.3517C62.9097 64.34 62.9174 64.3319 62.9303 64.3005C62.945 64.2649 62.9645 64.2008 62.979 64.0937C62.961 64.0661 62.9306 64.0248 62.8812 63.9689C62.666 63.7253 62.2407 63.3883 61.5156 62.9952C60.0737 62.2135 57.9198 61.4587 55.3253 60.7582C50.1714 59.3668 43.7948 58.322 39.1729 57.6156C38.2172 57.4695 37.4154 57.3018 36.8168 57.0877C36.5339 56.9864 36.1407 56.8219 35.7884 56.54C35.4873 56.299 34.952 55.7395 34.9069 54.8879C32.9253 54.9539 31.0345 55.0315 29.4473 55.1206C27.8809 55.2085 26.7341 55.3025 26.0786 55.3866ZM63.0029 64.1372C63.0027 64.1371 63.001 64.1338 62.9989 64.1274C63.0022 64.134 63.0032 64.1372 63.0029 64.1372ZM41.8306 61.1536C41.831 61.1534 41.8313 61.1532 41.8316 61.153C41.834 61.1512 41.8362 61.1496 41.8382 61.1481C41.8656 61.1275 41.8611 61.1269 41.8374 61.1476C41.8353 61.1494 41.8331 61.1514 41.8306 61.1536ZM22.9366 56.3338C22.936 56.3337 22.9427 56.328 22.9588 56.3174C22.9453 56.3286 22.9372 56.334 22.9366 56.3338Z" fill="white"/>
<path d="M64.8562 9.16713C61.6935 3.51146 55.986 0 49.9584 0C46.6529 0 43.3597 1.15629 40.4356 3.34512C38.8859 4.50546 37.4932 5.92952 36.3329 7.51587C35.1727 5.92952 33.7799 4.50344 32.2302 3.34512C29.3081 1.15629 26.015 0 22.7095 0C16.6819 0 10.9744 3.51146 7.8117 9.16713C4.85293 14.4577 4.87944 20.4906 7.88103 25.3024C10.5992 29.6578 14.9731 33.5242 19.604 37.6179C25.6234 42.9368 31.8469 48.4383 33.364 54.4713C33.7106 55.8548 34.9586 56.7778 36.3288 56.7778C36.5735 56.7778 36.8244 56.7473 37.0731 56.6865C37.3219 56.6256 37.5523 56.5323 37.7685 56.4167C38.8492 56.1651 39.7546 55.3375 40.0421 54.1934C41.5694 48.1178 47.595 42.6873 53.4249 37.4353C57.6846 33.5973 62.0891 29.6273 64.7848 25.3065C67.7885 20.4947 67.8129 14.4617 64.8542 9.17119L64.8562 9.16713Z" fill="#F793E1"/>
<path fill-rule="evenodd" clip-rule="evenodd" d="M59.8981 12.0777C56.1305 12.0777 52.3745 15.0152 50.6683 18.807C50.2433 19.7514 49.7151 21.1895 49.4908 22.5568C49.2423 24.0711 49.476 24.8077 49.6917 25.0487C50.4451 25.8903 50.3688 27.179 49.5212 27.9271C48.6737 28.6752 47.3759 28.5994 46.6225 27.7578C45.0755 26.0296 45.1606 23.5897 45.4377 21.901C45.7389 20.0654 46.4103 18.2741 46.919 17.1435C49.0905 12.3176 54.0803 8 59.8981 8C64.9871 8 69.4158 11.0251 71.8841 15.0065C74.3666 19.011 75.0488 24.2954 72.1812 28.8831C70.7398 31.1891 68.75 33.3413 66.6349 35.3821C65.3157 36.655 63.8724 37.9536 62.448 39.2352C61.6169 39.9828 60.7923 40.7247 60.0025 41.4524C55.5329 45.5704 51.892 49.505 50.7856 53.8996C50.5106 54.992 49.3958 55.6562 48.2957 55.3831C47.1956 55.11 46.5267 54.003 46.8017 52.9106C48.2396 47.1994 52.8025 42.5234 57.2094 38.4632C58.0805 37.6607 58.9389 36.8888 59.7815 36.1311C61.1585 34.8929 62.4935 33.6924 63.7731 32.4577C65.8094 30.4929 67.5158 28.6146 68.6922 26.7327C70.5718 23.7256 70.2353 20.1254 68.3871 17.1442C66.5245 14.1397 63.3103 12.0777 59.8981 12.0777Z" fill="white"/>
<path fill-rule="evenodd" clip-rule="evenodd" d="M36.8797 12.0572C40.6473 12.0572 44.4034 14.9798 46.1095 18.7525C46.5345 19.6921 47.0627 21.123 47.2871 22.4834C47.5355 23.99 47.3019 24.7229 47.0861 24.9627C46.3327 25.8001 46.4091 27.0823 47.2566 27.8266C48.1042 28.5709 49.402 28.4955 50.1553 27.6581C51.7023 25.9387 51.6172 23.5111 51.3401 21.8309C51.0389 20.0045 50.3675 18.2223 49.8588 17.0974C47.6873 12.2958 42.6976 8 36.8797 8C31.7907 8 27.362 11.0099 24.8938 14.9712C22.4112 18.9555 21.729 24.2132 24.5966 28.7778C26.0437 31.0811 28.081 33.2418 30.2551 35.2935C31.6334 36.5943 33.1443 37.9207 34.6375 39.2315C35.4759 39.9675 36.3087 40.6986 37.1092 41.4175C41.7514 45.586 45.5271 49.5535 46.6288 53.9074C46.9038 54.9943 48.0186 55.6551 49.1187 55.3834C50.2188 55.1117 50.8877 54.0103 50.6127 52.9234C49.1701 47.2225 44.4237 42.5031 39.8711 38.4151C38.993 37.6266 38.126 36.8658 37.2748 36.1189C35.8274 34.8488 34.4254 33.6186 33.0915 32.3597C30.9949 30.3811 29.2564 28.5017 28.0857 26.6382C26.206 23.6463 26.5425 20.0643 28.3908 17.0981C30.2533 14.1088 33.4676 12.0572 36.8797 12.0572Z" fill="white"/>
<path d="M0.216278 85.6164C0.216278 83.8813 0.811045 82.5205 2.00058 81.5342C3.19011 80.5297 4.93837 80.0274 7.24534 80.0274C9.55232 80.0274 11.3006 80.5297 12.4901 81.5342C13.6796 82.5205 14.2744 83.8813 14.2744 85.6164C14.2744 87.3516 13.6796 88.7215 12.4901 89.726C11.3006 90.7123 9.55232 91.2055 7.24534 91.2055C4.93837 91.2055 3.19011 90.7123 2.00058 89.726C0.811045 88.7215 0.216278 87.3516 0.216278 85.6164ZM16.5453 102.904V101.151H11.2465V97.8356H16.5453V80H20.4384V102.904H16.5453ZM26.0616 102.904H22.1416V80H26.0616V102.904ZM5.37994 102.904V96.1644H0V92.8493H14.9773V96.1644H9.27296V102.904H5.37994ZM4.46075 85.6164C4.46075 86.3105 4.72209 86.8676 5.24476 87.2877C5.76744 87.6895 6.4343 87.8904 7.24534 87.8904C8.05639 87.8904 8.72325 87.6804 9.24592 87.2603C9.78662 86.8402 10.057 86.2922 10.057 85.6164C10.057 84.9406 9.78662 84.3927 9.24592 83.9726C8.72325 83.5525 8.05639 83.3425 7.24534 83.3425C6.4343 83.3425 5.76744 83.5525 5.24476 83.9726C4.72209 84.3744 4.46075 84.9224 4.46075 85.6164Z" fill="white"/>
<path d="M31.2189 83.6164V89.2877H41.8166V92.6301H26.9745V80.274H41.5462V83.6164H31.2189ZM38.4102 104C36.716 104 35.2021 103.9 33.8684 103.699C32.5346 103.498 31.3992 103.187 30.462 102.767C29.5428 102.347 28.8399 101.826 28.3532 101.205C27.8666 100.584 27.6233 99.8448 27.6233 98.9863C27.6233 98.1461 27.8666 97.4155 28.3532 96.7945C28.8399 96.1553 29.5428 95.6347 30.462 95.2329C31.3992 94.8128 32.5346 94.5023 33.8684 94.3014C35.2021 94.1005 36.716 94 38.4102 94C40.1044 94 41.6183 94.1005 42.9521 94.3014C44.2858 94.5023 45.4122 94.8128 46.3314 95.2329C47.2686 95.6347 47.9806 96.1553 48.4672 96.7945C48.9538 97.4155 49.1971 98.1461 49.1971 98.9863C49.1971 99.8448 48.9538 100.584 48.4672 101.205C47.9806 101.826 47.2686 102.347 46.3314 102.767C45.4122 103.187 44.2858 103.498 42.9521 103.699C41.6183 103.9 40.1044 104 38.4102 104ZM38.4102 100.658C40.4829 100.658 42.0869 100.53 43.2224 100.274C44.3759 100.018 44.9526 99.589 44.9526 98.9863C44.9526 98.3836 44.3759 97.9543 43.2224 97.6986C42.0869 97.4429 40.4829 97.3151 38.4102 97.3151C36.3375 97.3151 34.7245 97.4429 33.571 97.6986C32.4355 97.9543 31.8678 98.3836 31.8678 98.9863C31.8678 99.589 32.4355 100.018 33.571 100.274C34.7245 100.53 36.3375 100.658 38.4102 100.658ZM48.6564 80V93.5616H44.4119V80H48.6564Z" fill="white"/>
<path d="M56.427 93.5616V95.1781H70.7555V93.5616H75V103.452H52.1826V93.5616H56.427ZM62.6451 80.274V91.8082H51.0471V80.274H62.6451ZM64.8079 92.3288V80H68.7009V84.4932L71.0799 83.6438V80H75V92.3288H71.0799V87.3425L68.7009 88.1918V92.3288H64.8079ZM70.7555 100.137V98.4932H56.427V100.137H70.7555ZM54.9401 88.7397H58.752V83.3425H54.9401V88.7397Z" fill="white"/>
</svg>
